<svg version="1.1" id="Capa_1" xmlns="http://www.w3.org/2000/svg" x="0" y="0" viewBox="0 0 502.707 502.707" xml:space="preserve"><path d="M469.423 202.01h-44.824V68.272c0-25.324-20.773-46.054-46.075-46.054H46.054C20.73 22.218 0 42.947 0 68.272v194.396c0 25.367 20.73 46.054 46.054 46.054h42.494v133.89c0 20.881 17.062 37.878 37.878 37.878h84.255c20.837 0 37.9-17.019 37.9-37.878V308.699h30.458v66.999c0 18.292 14.97 33.284 33.327 33.284h157.057c18.335 0 33.284-14.949 33.284-33.284V235.272c0-18.313-15.013-33.262-33.284-33.262zm-9.771 18.271c5.716 0 10.332 4.595 10.332 10.289 0 5.673-4.616 10.289-10.332 10.289a10.274 10.274 0 01-10.289-10.289c0-5.673 4.594-10.289 10.289-10.289zm17.86 160.141H304.277V256.433h173.235v123.989zm-47.369-160.12c5.716 0 10.311 4.595 10.311 10.268 0 5.673-4.595 10.268-10.311 10.268-5.652 0-10.268-4.595-10.268-10.268.022-5.673 4.638-10.268 10.268-10.268zM368.17 45.708c7.464 0 13.482 6.018 13.482 13.46s-6.018 13.46-13.482 13.46c-7.42 0-13.439-6.018-13.439-13.46.001-7.441 6.04-13.46 13.439-13.46zm-38.547.022c7.42 0 13.395 6.018 13.395 13.439s-5.975 13.439-13.395 13.439c-7.463 0-13.439-6.018-13.439-13.439s6.04-13.439 13.439-13.439zM168.015 236.998a10.265 10.265 0 0110.268-10.268c5.673 0 10.289 4.595 10.289 10.268 0 5.673-4.616 10.289-10.289 10.289-5.674 0-10.268-4.616-10.268-10.289zm29.444 0c0-5.695 4.616-10.289 10.311-10.289s10.289 4.595 10.289 10.289c0 5.673-4.595 10.289-10.289 10.289-5.695 0-10.311-4.616-10.311-10.289zm22.455 210.962H117.28V266.378h102.655l-.021 181.582zm28.668-178.778v-24.569c0-20.794-17.062-37.857-37.878-37.857h-84.277c-20.816 0-37.878 17.062-37.878 37.857v24.569H34.88V95.364h354.775V202.01h-77.31c-18.357 0-33.327 14.949-33.327 33.262v33.909h-30.436z"/></svg>